<?xml version="1.0" encoding="utf-8"?>
<!-- Generator: Adobe Illustrator 21.1.0, SVG Export Plug-In . SVG Version: 6.00 Build 0)  -->
<svg version="1.1" id="Layer_1" xmlns="http://www.w3.org/2000/svg" xmlns:xlink="http://www.w3.org/1999/xlink" x="0px" y="0px"
	 viewBox="0 0 5184 3456" style="enable-background:new 0 0 5184 3456;" xml:space="preserve">
<style type="text/css">
	.st0{display:none;opacity:0.28;fill:#3DBAC4;stroke:#3DBAC4;stroke-miterlimit:10;}
	.st1{fill:none;stroke:#3DBAC4;stroke-width:3;stroke-miterlimit:10;}
	.st2{fill:#3DBAC4;}
	.st3{fill:#83DCE3;}
</style>
<rect class="st0" width="5184" height="3456"/>
<circle class="st1" cx="2067.6" cy="1381" r="24.9"/>
<polygon class="st2" points="2050.2,1378.2 2067.1,1378.3 2078.9,1386.5 2070.6,1392.7 2065.9,1396.9 2064.7,1396.9 2052.1,1383.2 
	"/>
<g>
	<path class="st2" d="M2050.2,1378.3c0-4.6,3.7-8.4,8.4-8.4c4.6,0,8.4,3.7,8.4,8.4"/>
	<path class="st2" d="M2050.2,1378.2c0,0-1,8,16.7,21.2"/>
</g>
<g>
	<g>
		<path class="st3" d="M2083.8,1378.3c0-4.6-3.7-8.4-8.4-8.4c-4.6,0-8.4,3.7-8.4,8.4"/>
		<path class="st3" d="M2083.7,1378.2c0,0,1,8-16.7,21.2c0,0-3.5-1.6-2.1-5.7c0,0,0.5-2.2,5.5-5.8c4.6-3.4-2-6.9-2-6.9
			s-1.5-1.1-1.5-3.2"/>
	</g>
</g>
<ellipse transform="matrix(0.9701 -0.2428 0.2428 0.9701 -269.7662 543.8348)" class="st3" cx="2071.2" cy="1366.3" rx="2.4" ry="3.2"/>
<ellipse transform="matrix(0.1165 -0.9932 0.9932 0.1165 478.7358 3269.8193)" class="st3" cx="2077.2" cy="1365.8" rx="2.4" ry="1.8"/>
<ellipse transform="matrix(0.4296 -0.903 0.903 0.4296 -47.8271 2659.9385)" class="st3" cx="2081.6" cy="1367.8" rx="1.8" ry="1.3"/>
<ellipse transform="matrix(0.6516 -0.7586 0.7586 0.6516 -314.2192 2058.6038)" class="st3" cx="2084" cy="1371.4" rx="1.5" ry="1.1"/>
<ellipse transform="matrix(0.8008 -0.599 0.599 0.8008 -407.9927 1523.0992)" class="st3" cx="2085.6" cy="1374.9" rx="1.3" ry="1"/>
</svg>
